# xmcd
#
# Track frame offsets:
#       182
#       13965
#       26485
#       42267
#       55555
#       72112
#       84392
#       101097
#       114252
#       131880
#       146110
#       162500
#       174007
#       186270
#
# Disc length: 2864 seconds
#
# Revision: 3
# Processed by: cddbd v1.5.2PL0 Copyright (c) Steve Scherf et al.
# Submitted via: FreeDbEdit v0.1
#
DISCID=ba0b2e0e
DTITLE=Jimmy Buffett - The Great Jimmy Buffett
DYEAR=1994
DGENRE=Country
TTITLE0=The Great Filling Station Holdup
TTITLE1=Railroad Lady
TTITLE2=He Went to Paris
TTITLE3=Grapefruit Juicy Fruit
TTITLE4=Cuban Crime of Passion
TTITLE5=Why Don't We Get Drunk
TTITLE6=Peanut Butter Conspiracy
TTITLE7=They Don't Dance Like Carmen No More
TTITLE8=I Have Found Me a Home
TTITLE9=My Lovely Lady
TTITLE10=Death of an Unpopular Poet
TTITLE11=Ringling Ringling
TTITLE12=Brand New Country Star
TTITLE13=God's Own Drunk
EXTD=
EXTT0=
EXTT1=
EXTT2=
EXTT3=
EXTT4=
EXTT5=
EXTT6=
EXTT7=
EXTT8=
EXTT9=
EXTT10=
EXTT11=
EXTT12=
EXTT13=
PLAYORDER=
